# xmcd
#
# Track frame offsets: 
#        150
#        18147
#        32952
#        45067
#        58007
#        72699
#        87511
#        105529
#        121571
#        149486
#
# Disc length: 2106 seconds
#
# Revision: 0
# Processed by: cddbd v1.5.2PL0 Copyright (c) Steve Scherf et al.
# Submitted via: ExactAudioCopy v0.99pb3
#
DISCID=8108380a
DTITLE=Various Artist - The Matinée Winter Warmer
DYEAR=2004
DGENRE=Matinée
TTITLE0=Slipslide - Baked Alaska
TTITLE1=The Fairways - Winter Song
TTITLE2=Pipas - Boxes
TTITLE3=The Windmills - When It Was Winter
TTITLE4=Harper Lee - Bad Christmas
TTITLE5=The Liberty Ship - Photograph
TTITLE6=The Lucksmiths - The Winter Proper
TTITLE7=The Pines - High Street
TTITLE8=Lovejoy - I Dream Of Angels
TTITLE9=Melodie Group - Jingle Bells
EXTD=
EXTT0=
EXTT1=
EXTT2=
EXTT3=
EXTT4=
EXTT5=
EXTT6=
EXTT7=
EXTT8=
EXTT9=
PLAYORDER=
